<?xml version="1.0" encoding="utf-8" standalone="no"?>
<!DOCTYPE svg PUBLIC "-//W3C//DTD SVG 1.1//EN"
  "http://www.w3.org/Graphics/SVG/1.1/DTD/svg11.dtd">
<svg xmlns:xlink="http://www.w3.org/1999/xlink" width="576pt" height="288pt" viewBox="0 0 576 288" xmlns="http://www.w3.org/2000/svg" version="1.1">
 <metadata>
  <rdf:RDF xmlns:dc="http://purl.org/dc/elements/1.1/" xmlns:cc="http://creativecommons.org/ns#" xmlns:rdf="http://www.w3.org/1999/02/22-rdf-syntax-ns#">
   <cc:Work>
    <dc:type rdf:resource="http://purl.org/dc/dcmitype/StillImage"/>
    <dc:date>2023-09-29T09:48:34.788352</dc:date>
    <dc:format>image/svg+xml</dc:format>
    <dc:creator>
     <cc:Agent>
      <dc:title>Matplotlib v3.6.3, https://matplotlib.org/</dc:title>
     </cc:Agent>
    </dc:creator>
   </cc:Work>
  </rdf:RDF>
 </metadata>
 <defs>
  <style type="text/css">*{stroke-linejoin: round; stroke-linecap: butt}</style>
 </defs>
 <g id="figure_1">
  <g id="patch_1">
   <path d="M 0 288 
L 576 288 
L 576 0 
L 0 0 
z
" style="fill: #ffffff"/>
  </g>
  <g id="axes_1">
   <g id="patch_2">
    <path d="M 72 256.32 
L 274.909091 256.32 
L 274.909091 34.56 
L 72 34.56 
z
" style="fill: #ffffff"/>
   </g>
   <g id="PolyCollection_1">
    <defs>
     <path id="md2e402f74c" d="M 122.743322 -36.86286 
L 122.727504 -36.86286 
L 122.727504 -37.854486 
L 122.727504 -38.846113 
L 122.727504 -39.83774 
L 122.727504 -40.829366 
L 122.727504 -41.820993 
L 122.727504 -42.81262 
L 122.727504 -43.804246 
L 122.727504 -44.795873 
L 122.727504 -45.7875 
L 122.727504 -46.779126 
L 122.727504 -47.770753 
L 122.727504 -48.76238 
L 122.727504 -49.754006 
L 122.727504 -50.745633 
L 122.727504 -51.73726 
L 122.727504 -52.728886 
L 122.727504 -53.720513 
L 122.727504 -54.71214 
L 122.727504 -55.703766 
L 122.727504 -56.695393 
L 122.727504 -57.68702 
L 122.727504 -58.678646 
L 122.727504 -59.670273 
L 122.727504 -60.6619 
L 122.727504 -61.653527 
L 122.727504 -62.645153 
L 122.727504 -63.63678 
L 122.727504 -64.628407 
L 122.727504 -65.620033 
L 122.727504 -66.61166 
L 122.727504 -67.603287 
L 122.727504 -68.594913 
L 122.727504 -69.58654 
L 122.727504 -70.578167 
L 122.727504 -71.569793 
L 122.727504 -72.56142 
L 122.727504 -73.553047 
L 122.727504 -74.544673 
L 122.727504 -75.5363 
L 122.727504 -76.527927 
L 122.727504 -77.519553 
L 122.727504 -78.51118 
L 122.727504 -79.502807 
L 122.727504 -80.494433 
L 122.727504 -81.48606 
L 122.727504 -82.477687 
L 122.727504 -83.469313 
L 122.727504 -84.46094 
L 122.727504 -85.452567 
L 122.727504 -86.444194 
L 122.727504 -87.43582 
L 122.727504 -88.427447 
L 122.727504 -89.419074 
L 122.727504 -90.4107 
L 122.727504 -91.402327 
L 122.727504 -92.393954 
L 122.727504 -93.38558 
L 122.727504 -94.377207 
L 122.727504 -95.368834 
L 122.727504 -96.36046 
L 122.727504 -97.352087 
L 122.727504 -98.343714 
L 122.727504 -99.33534 
L 122.727504 -100.326967 
L 122.727504 -101.318594 
L 122.727504 -102.31022 
L 122.727504 -103.301847 
L 122.727504 -104.293474 
L 122.727504 -105.2851 
L 122.727504 -106.276727 
L 122.727504 -107.268354 
L 122.727504 -108.25998 
L 122.727504 -109.251607 
L 122.727504 -110.243234 
L 122.727504 -111.234861 
L 122.727504 -112.226487 
L 122.727504 -113.218114 
L 122.727504 -114.209741 
L 122.727504 -115.201367 
L 122.727504 -116.192994 
L 122.727504 -117.184621 
L 122.727504 -118.176247 
L 122.727504 -119.167874 
L 122.727504 -120.159501 
L 122.727504 -121.151127 
L 122.727504 -122.142754 
L 122.727504 -123.134381 
L 122.727504 -124.126007 
L 122.727504 -125.117634 
L 122.727504 -126.109261 
L 122.727504 -127.100887 
L 122.727504 -128.092514 
L 122.727504 -129.084141 
L 122.727504 -130.075767 
L 122.727504 -131.067394 
L 122.727504 -132.059021 
L 122.727504 -133.050647 
L 122.727504 -134.042274 
L 122.727504 -135.033901 
L 122.742065 -135.033901 
L 122.742065 -135.033901 
L 122.742396 -134.042274 
L 122.741994 -133.050647 
L 122.741958 -132.059021 
L 122.742506 -131.067394 
L 122.74289 -130.075767 
L 122.742489 -129.084141 
L 122.741895 -128.092514 
L 122.74285 -127.100887 
L 122.747274 -126.109261 
L 122.756529 -125.117634 
L 122.771572 -124.126007 
L 122.79366 -123.134381 
L 122.824957 -122.142754 
L 122.8685 -121.151127 
L 122.927063 -120.159501 
L 123.001287 -119.167874 
L 123.089081 -118.176247 
L 123.18804 -117.184621 
L 123.299156 -116.192994 
L 123.427437 -115.201367 
L 123.57784 -114.209741 
L 123.75077 -113.218114 
L 123.943055 -112.226487 
L 124.154467 -111.234861 
L 124.39289 -110.243234 
L 124.671271 -109.251607 
L 124.996828 -108.25998 
L 125.361127 -107.268354 
L 125.741851 -106.276727 
L 126.119118 -105.2851 
L 126.494194 -104.293474 
L 126.890891 -103.301847 
L 127.332997 -102.31022 
L 127.817443 -101.318594 
L 128.313527 -100.326967 
L 128.793395 -99.33534 
L 129.261255 -98.343714 
L 129.746953 -97.352087 
L 130.271049 -96.36046 
L 130.821227 -95.368834 
L 131.362952 -94.377207 
L 131.867119 -93.38558 
L 132.32562 -92.393954 
L 132.748029 -91.402327 
L 133.151906 -90.4107 
L 133.554761 -89.419074 
L 133.965562 -88.427447 
L 134.37642 -87.43582 
L 134.761384 -86.444194 
L 135.084382 -85.452567 
L 135.309626 -84.46094 
L 135.409091 -83.469313 
L 135.367696 -82.477687 
L 135.185659 -81.48606 
L 134.874806 -80.494433 
L 134.452892 -79.502807 
L 133.945718 -78.51118 
L 133.394242 -77.519553 
L 132.849057 -76.527927 
L 132.346348 -75.5363 
L 131.886335 -74.544673 
L 131.437524 -73.553047 
L 130.962699 -72.56142 
L 130.442997 -71.569793 
L 129.885533 -70.578167 
L 129.316745 -69.58654 
L 128.767496 -68.594913 
L 128.255487 -67.603287 
L 127.775171 -66.61166 
L 127.305002 -65.620033 
L 126.828389 -64.628407 
L 126.350045 -63.63678 
L 125.891944 -62.645153 
L 125.473687 -61.653527 
L 125.098587 -60.6619 
L 124.759233 -59.670273 
L 124.453047 -58.678646 
L 124.187821 -57.68702 
L 123.971521 -56.695393 
L 123.800415 -55.703766 
L 123.65975 -54.71214 
L 123.534121 -53.720513 
L 123.41487 -52.728886 
L 123.29983 -51.73726 
L 123.190669 -50.745633 
L 123.09152 -49.754006 
L 123.00723 -48.76238 
L 122.94046 -47.770753 
L 122.89012 -46.779126 
L 122.852598 -45.7875 
L 122.824086 -44.795873 
L 122.801843 -43.804246 
L 122.784175 -42.81262 
L 122.770115 -41.820993 
L 122.75931 -40.829366 
L 122.751815 -39.83774 
L 122.747445 -38.846113 
L 122.745168 -37.854486 
L 122.743322 -36.86286 
z
"/>
    </defs>
    <g clip-path="url(#pe654a03598)">
     <use xlink:href="#md2e402f74c" x="0" y="288" style="fill: #4682b4; fill-opacity: 0.4"/>
    </g>
   </g>
   <g id="PolyCollection_2">
    <defs>
     <path id="m17604f8528" d="M 173.478601 -140.223379 
L 173.454991 -140.223379 
L 173.454991 -141.141539 
L 173.454991 -142.059699 
L 173.454991 -142.977859 
L 173.454991 -143.896018 
L 173.454991 -144.814178 
L 173.454991 -145.732338 
L 173.454991 -146.650498 
L 173.454991 -147.568658 
L 173.454991 -148.486818 
L 173.454991 -149.404978 
L 173.454991 -150.323138 
L 173.454991 -151.241298 
L 173.454991 -152.159458 
L 173.454991 -153.077618 
L 173.454991 -153.995778 
L 173.454991 -154.913938 
L 173.454991 -155.832097 
L 173.454991 -156.750257 
L 173.454991 -157.668417 
L 173.454991 -158.586577 
L 173.454991 -159.504737 
L 173.454991 -160.422897 
L 173.454991 -161.341057 
L 173.454991 -162.259217 
L 173.454991 -163.177377 
L 173.454991 -164.095537 
L 173.454991 -165.013697 
L 173.454991 -165.931857 
L 173.454991 -166.850017 
L 173.454991 -167.768176 
L 173.454991 -168.686336 
L 173.454991 -169.604496 
L 173.454991 -170.522656 
L 173.454991 -171.440816 
L 173.454991 -172.358976 
L 173.454991 -173.277136 
L 173.454991 -174.195296 
L 173.454991 -175.113456 
L 173.454991 -176.031616 
L 173.454991 -176.949776 
L 173.454991 -177.867936 
L 173.454991 -178.786095 
L 173.454991 -179.704255 
L 173.454991 -180.622415 
L 173.454991 -181.540575 
L 173.454991 -182.458735 
L 173.454991 -183.376895 
L 173.454991 -184.295055 
L 173.454991 -185.213215 
L 173.454991 -186.131375 
L 173.454991 -187.049535 
L 173.454991 -187.967695 
L 173.454991 -188.885855 
L 173.454991 -189.804015 
L 173.454991 -190.722174 
L 173.454991 -191.640334 
L 173.454991 -192.558494 
L 173.454991 -193.476654 
L 173.454991 -194.394814 
L 173.454991 -195.312974 
L 173.454991 -196.231134 
L 173.454991 -197.149294 
L 173.454991 -198.067454 
L 173.454991 -198.985614 
L 173.454991 -199.903774 
L 173.454991 -200.821934 
L 173.454991 -201.740094 
L 173.454991 -202.658253 
L 173.454991 -203.576413 
L 173.454991 -204.494573 
L 173.454991 -205.412733 
L 173.454991 -206.330893 
L 173.454991 -207.249053 
L 173.454991 -208.167213 
L 173.454991 -209.085373 
L 173.454991 -210.003533 
L 173.454991 -210.921693 
L 173.454991 -211.839853 
L 173.454991 -212.758013 
L 173.454991 -213.676172 
L 173.454991 -214.594332 
L 173.454991 -215.512492 
L 173.454991 -216.430652 
L 173.454991 -217.348812 
L 173.454991 -218.266972 
L 173.454991 -219.185132 
L 173.454991 -220.103292 
L 173.454991 -221.021452 
L 173.454991 -221.939612 
L 173.454991 -222.857772 
L 173.454991 -223.775932 
L 173.454991 -224.694092 
L 173.454991 -225.612251 
L 173.454991 -226.530411 
L 173.454991 -227.448571 
L 173.454991 -228.366731 
L 173.454991 -229.284891 
L 173.454991 -230.203051 
L 173.454991 -231.121211 
L 173.496861 -231.121211 
L 173.496861 -231.121211 
L 173.512119 -230.203051 
L 173.529674 -229.284891 
L 173.551056 -228.366731 
L 173.579675 -227.448571 
L 173.620646 -226.530411 
L 173.679444 -225.612251 
L 173.759414 -224.694092 
L 173.859099 -223.775932 
L 173.971215 -222.857772 
L 174.084893 -221.939612 
L 174.190879 -221.021452 
L 174.286994 -220.103292 
L 174.380395 -219.185132 
L 174.484969 -218.266972 
L 174.615277 -217.348812 
L 174.780928 -216.430652 
L 174.985317 -215.512492 
L 175.229174 -214.594332 
L 175.514491 -213.676172 
L 175.843712 -212.758013 
L 176.214801 -211.839853 
L 176.618523 -210.921693 
L 177.041984 -210.003533 
L 177.474808 -209.085373 
L 177.911969 -208.167213 
L 178.353275 -207.249053 
L 178.804019 -206.330893 
L 179.276969 -205.412733 
L 179.789714 -204.494573 
L 180.354062 -203.576413 
L 180.963447 -202.658253 
L 181.588328 -201.740094 
L 182.183893 -200.821934 
L 182.706238 -199.903774 
L 183.129526 -198.985614 
L 183.456897 -198.067454 
L 183.71987 -197.149294 
L 183.965863 -196.231134 
L 184.24009 -195.312974 
L 184.569867 -194.394814 
L 184.954819 -193.476654 
L 185.363355 -192.558494 
L 185.737968 -191.640334 
L 186.012349 -190.722174 
L 186.136364 -189.804015 
L 186.096668 -188.885855 
L 185.920694 -187.967695 
L 185.660874 -187.049535 
L 185.367793 -186.131375 
L 185.067286 -185.213215 
L 184.753772 -184.295055 
L 184.402982 -183.376895 
L 183.996641 -182.458735 
L 183.542969 -181.540575 
L 183.075431 -180.622415 
L 182.626271 -179.704255 
L 182.19618 -178.786095 
L 181.751069 -177.867936 
L 181.252834 -176.949776 
L 180.695291 -176.031616 
L 180.111258 -175.113456 
L 179.548445 -174.195296 
L 179.040925 -173.277136 
L 178.597895 -172.358976 
L 178.207677 -171.440816 
L 177.845485 -170.522656 
L 177.482124 -169.604496 
L 177.096126 -168.686336 
L 176.68513 -167.768176 
L 176.267127 -166.850017 
L 175.869365 -165.931857 
L 175.514178 -165.013697 
L 175.212375 -164.095537 
L 174.965272 -163.177377 
L 174.768349 -162.259217 
L 174.611708 -161.341057 
L 174.480043 -160.422897 
L 174.356909 -159.504737 
L 174.232476 -158.586577 
L 174.108494 -157.668417 
L 173.995774 -156.750257 
L 173.905907 -155.832097 
L 173.843348 -154.913938 
L 173.802782 -153.995778 
L 173.77254 -153.077618 
L 173.741219 -152.159458 
L 173.703276 -151.241298 
L 173.66039 -150.323138 
L 173.618353 -149.404978 
L 173.582413 -148.486818 
L 173.554591 -147.568658 
L 173.534074 -146.650498 
L 173.519058 -145.732338 
L 173.508024 -144.814178 
L 173.499906 -143.896018 
L 173.493778 -142.977859 
L 173.488701 -142.059699 
L 173.483824 -141.141539 
L 173.478601 -140.223379 
z
"/>
    </defs>
    <g clip-path="url(#pe654a03598)">
     <use xlink:href="#m17604f8528" x="0" y="288" style="fill: #ff4500; fill-opacity: 0.4"/>
    </g>
   </g>
   <g id="PolyCollection_3">
    <defs>
     <path id="mf4870460a8" d="M 224.223232 -76.854295 
L 224.182316 -76.854295 
L 224.182316 -77.817147 
L 224.182316 -78.779998 
L 224.182316 -79.74285 
L 224.182316 -80.705702 
L 224.182316 -81.668554 
L 224.182316 -82.631406 
L 224.182316 -83.594258 
L 224.182316 -84.55711 
L 224.182316 -85.519962 
L 224.182316 -86.482813 
L 224.182316 -87.445665 
L 224.182316 -88.408517 
L 224.182316 -89.371369 
L 224.182316 -90.334221 
L 224.182316 -91.297073 
L 224.182316 -92.259925 
L 224.182316 -93.222777 
L 224.182316 -94.185629 
L 224.182316 -95.14848 
L 224.182316 -96.111332 
L 224.182316 -97.074184 
L 224.182316 -98.037036 
L 224.182316 -98.999888 
L 224.182316 -99.96274 
L 224.182316 -100.925592 
L 224.182316 -101.888444 
L 224.182316 -102.851296 
L 224.182316 -103.814147 
L 224.182316 -104.776999 
L 224.182316 -105.739851 
L 224.182316 -106.702703 
L 224.182316 -107.665555 
L 224.182316 -108.628407 
L 224.182316 -109.591259 
L 224.182316 -110.554111 
L 224.182316 -111.516962 
L 224.182316 -112.479814 
L 224.182316 -113.442666 
L 224.182316 -114.405518 
L 224.182316 -115.36837 
L 224.182316 -116.331222 
L 224.182316 -117.294074 
L 224.182316 -118.256926 
L 224.182316 -119.219778 
L 224.182316 -120.182629 
L 224.182316 -121.145481 
L 224.182316 -122.108333 
L 224.182316 -123.071185 
L 224.182316 -124.034037 
L 224.182316 -124.996889 
L 224.182316 -125.959741 
L 224.182316 -126.922593 
L 224.182316 -127.885444 
L 224.182316 -128.848296 
L 224.182316 -129.811148 
L 224.182316 -130.774 
L 224.182316 -131.736852 
L 224.182316 -132.699704 
L 224.182316 -133.662556 
L 224.182316 -134.625408 
L 224.182316 -135.58826 
L 224.182316 -136.551111 
L 224.182316 -137.513963 
L 224.182316 -138.476815 
L 224.182316 -139.439667 
L 224.182316 -140.402519 
L 224.182316 -141.365371 
L 224.182316 -142.328223 
L 224.182316 -143.291075 
L 224.182316 -144.253927 
L 224.182316 -145.216778 
L 224.182316 -146.17963 
L 224.182316 -147.142482 
L 224.182316 -148.105334 
L 224.182316 -149.068186 
L 224.182316 -150.031038 
L 224.182316 -150.99389 
L 224.182316 -151.956742 
L 224.182316 -152.919593 
L 224.182316 -153.882445 
L 224.182316 -154.845297 
L 224.182316 -155.808149 
L 224.182316 -156.771001 
L 224.182316 -157.733853 
L 224.182316 -158.696705 
L 224.182316 -159.659557 
L 224.182316 -160.622409 
L 224.182316 -161.58526 
L 224.182316 -162.548112 
L 224.182316 -163.510964 
L 224.182316 -164.473816 
L 224.182316 -165.436668 
L 224.182316 -166.39952 
L 224.182316 -167.362372 
L 224.182316 -168.325224 
L 224.182316 -169.288075 
L 224.182316 -170.250927 
L 224.182316 -171.213779 
L 224.182316 -172.176631 
L 224.200052 -172.176631 
L 224.200052 -172.176631 
L 224.202898 -171.213779 
L 224.206695 -170.250927 
L 224.213484 -169.288075 
L 224.225187 -168.325224 
L 224.242929 -167.362372 
L 224.266693 -166.39952 
L 224.295297 -165.436668 
L 224.326588 -164.473816 
L 224.357524 -163.510964 
L 224.38418 -162.548112 
L 224.402716 -161.58526 
L 224.412271 -160.622409 
L 224.418315 -159.659557 
L 224.432785 -158.696705 
L 224.469106 -157.733853 
L 224.535086 -156.771001 
L 224.629468 -155.808149 
L 224.745121 -154.845297 
L 224.876297 -153.882445 
L 225.024208 -152.919593 
L 225.196756 -151.956742 
L 225.402554 -150.99389 
L 225.643101 -150.031038 
L 225.908742 -149.068186 
L 226.183006 -148.105334 
L 226.454807 -147.142482 
L 226.730766 -146.17963 
L 227.036843 -145.216778 
L 227.404867 -144.253927 
L 227.851829 -143.291075 
L 228.367058 -142.328223 
L 228.917404 -141.365371 
L 229.467065 -140.402519 
L 229.997603 -139.439667 
L 230.51365 -138.476815 
L 231.03222 -137.513963 
L 231.568364 -136.551111 
L 232.130549 -135.58826 
L 232.723285 -134.625408 
L 233.344011 -133.662556 
L 233.973056 -132.699704 
L 234.571817 -131.736852 
L 235.098319 -130.774 
L 235.527364 -129.811148 
L 235.856023 -128.848296 
L 236.093534 -127.885444 
L 236.252431 -126.922593 
L 236.351578 -125.959741 
L 236.421936 -124.996889 
L 236.499622 -124.034037 
L 236.605836 -123.071185 
L 236.730023 -122.108333 
L 236.832043 -121.145481 
L 236.863636 -120.182629 
L 236.794612 -119.219778 
L 236.62558 -118.256926 
L 236.378664 -117.294074 
L 236.075366 -116.331222 
L 235.722268 -115.36837 
L 235.316291 -114.405518 
L 234.859609 -113.442666 
L 234.365553 -112.479814 
L 233.850015 -111.516962 
L 233.319347 -110.554111 
L 232.767653 -109.591259 
L 232.186118 -108.628407 
L 231.576299 -107.665555 
L 230.956054 -106.702703 
L 230.353291 -105.739851 
L 229.792885 -104.776999 
L 229.285698 -103.814147 
L 228.824346 -102.851296 
L 228.38668 -101.888444 
L 227.94724 -100.925592 
L 227.493124 -99.96274 
L 227.034189 -98.999888 
L 226.59849 -98.037036 
L 226.215657 -97.074184 
L 225.901511 -96.111332 
L 225.654272 -95.14848 
L 225.46066 -94.185629 
L 225.303478 -93.222777 
L 225.166238 -92.259925 
L 225.036322 -91.297073 
L 224.907939 -90.334221 
L 224.782825 -89.371369 
L 224.667168 -88.408517 
L 224.567083 -87.445665 
L 224.486008 -86.482813 
L 224.424508 -85.519962 
L 224.380687 -84.55711 
L 224.350519 -83.594258 
L 224.328767 -82.631406 
L 224.310623 -81.668554 
L 224.293019 -80.705702 
L 224.274887 -79.74285 
L 224.256572 -78.779998 
L 224.239033 -77.817147 
L 224.223232 -76.854295 
z
"/>
    </defs>
    <g clip-path="url(#pe654a03598)">
     <use xlink:href="#mf4870460a8" x="0" y="288" style="fill: #2e8b57; fill-opacity: 0.4"/>
    </g>
   </g>
   <g id="matplotlib.axis_1">
    <g id="xtick_1">
     <g id="line2d_1">
      <defs>
       <path id="m33051110d5" d="M 0 0 
L 0 3.5 
" style="stroke: #000000; stroke-width: 0.8"/>
      </defs>
      <g>
       <use xlink:href="#m33051110d5" x="122.727273" y="256.32" style="stroke: #000000; stroke-width: 0.8"/>
      </g>
     </g>
     <g id="text_1">
      <!-- Tumor Size -->
      <g transform="translate(42.556832 351.295132) rotate(-45) scale(0.2 -0.2)">
       <defs>
        <path id="DejaVuSans-54" d="M -19 4666 
L 3928 4666 
L 3928 4134 
L 2272 4134 
L 2272 0 
L 1638 0 
L 1638 4134 
L -19 4134 
L -19 4666 
z
" transform="scale(0.015625)"/>
        <path id="DejaVuSans-75" d="M 544 1381 
L 544 3500 
L 1119 3500 
L 1119 1403 
Q 1119 906 1312 657 
Q 1506 409 1894 409 
Q 2359 409 2629 706 
Q 2900 1003 2900 1516 
L 2900 3500 
L 3475 3500 
L 3475 0 
L 2900 0 
L 2900 538 
Q 2691 219 2414 64 
Q 2138 -91 1772 -91 
Q 1169 -91 856 284 
Q 544 659 544 1381 
z
M 1991 3584 
L 1991 3584 
z
" transform="scale(0.015625)"/>
        <path id="DejaVuSans-6d" d="M 3328 2828 
Q 3544 3216 3844 3400 
Q 4144 3584 4550 3584 
Q 5097 3584 5394 3201 
Q 5691 2819 5691 2113 
L 5691 0 
L 5113 0 
L 5113 2094 
Q 5113 2597 4934 2840 
Q 4756 3084 4391 3084 
Q 3944 3084 3684 2787 
Q 3425 2491 3425 1978 
L 3425 0 
L 2847 0 
L 2847 2094 
Q 2847 2600 2669 2842 
Q 2491 3084 2119 3084 
Q 1678 3084 1418 2786 
Q 1159 2488 1159 1978 
L 1159 0 
L 581 0 
L 581 3500 
L 1159 3500 
L 1159 2956 
Q 1356 3278 1631 3431 
Q 1906 3584 2284 3584 
Q 2666 3584 2933 3390 
Q 3200 3197 3328 2828 
z
" transform="scale(0.015625)"/>
        <path id="DejaVuSans-6f" d="M 1959 3097 
Q 1497 3097 1228 2736 
Q 959 2375 959 1747 
Q 959 1119 1226 758 
Q 1494 397 1959 397 
Q 2419 397 2687 759 
Q 2956 1122 2956 1747 
Q 2956 2369 2687 2733 
Q 2419 3097 1959 3097 
z
M 1959 3584 
Q 2709 3584 3137 3096 
Q 3566 2609 3566 1747 
Q 3566 888 3137 398 
Q 2709 -91 1959 -91 
Q 1206 -91 779 398 
Q 353 888 353 1747 
Q 353 2609 779 3096 
Q 1206 3584 1959 3584 
z
" transform="scale(0.015625)"/>
        <path id="DejaVuSans-72" d="M 2631 2963 
Q 2534 3019 2420 3045 
Q 2306 3072 2169 3072 
Q 1681 3072 1420 2755 
Q 1159 2438 1159 1844 
L 1159 0 
L 581 0 
L 581 3500 
L 1159 3500 
L 1159 2956 
Q 1341 3275 1631 3429 
Q 1922 3584 2338 3584 
Q 2397 3584 2469 3576 
Q 2541 3569 2628 3553 
L 2631 2963 
z
" transform="scale(0.015625)"/>
        <path id="DejaVuSans-20" transform="scale(0.015625)"/>
        <path id="DejaVuSans-53" d="M 3425 4513 
L 3425 3897 
Q 3066 4069 2747 4153 
Q 2428 4238 2131 4238 
Q 1616 4238 1336 4038 
Q 1056 3838 1056 3469 
Q 1056 3159 1242 3001 
Q 1428 2844 1947 2747 
L 2328 2669 
Q 3034 2534 3370 2195 
Q 3706 1856 3706 1288 
Q 3706 609 3251 259 
Q 2797 -91 1919 -91 
Q 1588 -91 1214 -16 
Q 841 59 441 206 
L 441 856 
Q 825 641 1194 531 
Q 1563 422 1919 422 
Q 2459 422 2753 634 
Q 3047 847 3047 1241 
Q 3047 1584 2836 1778 
Q 2625 1972 2144 2069 
L 1759 2144 
Q 1053 2284 737 2584 
Q 422 2884 422 3419 
Q 422 4038 858 4394 
Q 1294 4750 2059 4750 
Q 2388 4750 2728 4690 
Q 3069 4631 3425 4513 
z
" transform="scale(0.015625)"/>
        <path id="DejaVuSans-69" d="M 603 3500 
L 1178 3500 
L 1178 0 
L 603 0 
L 603 3500 
z
M 603 4863 
L 1178 4863 
L 1178 4134 
L 603 4134 
L 603 4863 
z
" transform="scale(0.015625)"/>
        <path id="DejaVuSans-7a" d="M 353 3500 
L 3084 3500 
L 3084 2975 
L 922 459 
L 3084 459 
L 3084 0 
L 275 0 
L 275 525 
L 2438 3041 
L 353 3041 
L 353 3500 
z
" transform="scale(0.015625)"/>
        <path id="DejaVuSans-65" d="M 3597 1894 
L 3597 1613 
L 953 1613 
Q 991 1019 1311 708 
Q 1631 397 2203 397 
Q 2534 397 2845 478 
Q 3156 559 3463 722 
L 3463 178 
Q 3153 47 2828 -22 
Q 2503 -91 2169 -91 
Q 1331 -91 842 396 
Q 353 884 353 1716 
Q 353 2575 817 3079 
Q 1281 3584 2069 3584 
Q 2775 3584 3186 3129 
Q 3597 2675 3597 1894 
z
M 3022 2063 
Q 3016 2534 2758 2815 
Q 2500 3097 2075 3097 
Q 1594 3097 1305 2825 
Q 1016 2553 972 2059 
L 3022 2063 
z
" transform="scale(0.015625)"/>
       </defs>
       <use xlink:href="#DejaVuSans-54"/>
       <use xlink:href="#DejaVuSans-75" x="45.958984"/>
       <use xlink:href="#DejaVuSans-6d" x="109.337891"/>
       <use xlink:href="#DejaVuSans-6f" x="206.75"/>
       <use xlink:href="#DejaVuSans-72" x="267.931641"/>
       <use xlink:href="#DejaVuSans-20" x="309.044922"/>
       <use xlink:href="#DejaVuSans-53" x="340.832031"/>
       <use xlink:href="#DejaVuSans-69" x="404.308594"/>
       <use xlink:href="#DejaVuSans-7a" x="432.091797"/>
       <use xlink:href="#DejaVuSans-65" x="484.582031"/>
      </g>
     </g>
    </g>
    <g id="xtick_2">
     <g id="line2d_2">
      <g>
       <use xlink:href="#m33051110d5" x="173.454545" y="256.32" style="stroke: #000000; stroke-width: 0.8"/>
      </g>
     </g>
     <g id="text_2">
      <!-- Survival -->
      <g transform="translate(113.4941 331.085136) rotate(-45) scale(0.2 -0.2)">
       <defs>
        <path id="DejaVuSans-76" d="M 191 3500 
L 800 3500 
L 1894 563 
L 2988 3500 
L 3597 3500 
L 2284 0 
L 1503 0 
L 191 3500 
z
" transform="scale(0.015625)"/>
        <path id="DejaVuSans-61" d="M 2194 1759 
Q 1497 1759 1228 1600 
Q 959 1441 959 1056 
Q 959 750 1161 570 
Q 1363 391 1709 391 
Q 2188 391 2477 730 
Q 2766 1069 2766 1631 
L 2766 1759 
L 2194 1759 
z
M 3341 1997 
L 3341 0 
L 2766 0 
L 2766 531 
Q 2569 213 2275 61 
Q 1981 -91 1556 -91 
Q 1019 -91 701 211 
Q 384 513 384 1019 
Q 384 1609 779 1909 
Q 1175 2209 1959 2209 
L 2766 2209 
L 2766 2266 
Q 2766 2663 2505 2880 
Q 2244 3097 1772 3097 
Q 1472 3097 1187 3025 
Q 903 2953 641 2809 
L 641 3341 
Q 956 3463 1253 3523 
Q 1550 3584 1831 3584 
Q 2591 3584 2966 3190 
Q 3341 2797 3341 1997 
z
" transform="scale(0.015625)"/>
        <path id="DejaVuSans-6c" d="M 603 4863 
L 1178 4863 
L 1178 0 
L 603 0 
L 603 4863 
z
" transform="scale(0.015625)"/>
       </defs>
       <use xlink:href="#DejaVuSans-53"/>
       <use xlink:href="#DejaVuSans-75" x="63.476562"/>
       <use xlink:href="#DejaVuSans-72" x="126.855469"/>
       <use xlink:href="#DejaVuSans-76" x="167.96875"/>
       <use xlink:href="#DejaVuSans-69" x="227.148438"/>
       <use xlink:href="#DejaVuSans-76" x="254.931641"/>
       <use xlink:href="#DejaVuSans-61" x="314.111328"/>
       <use xlink:href="#DejaVuSans-6c" x="375.390625"/>
      </g>
     </g>
    </g>
    <g id="xtick_3">
     <g id="line2d_3">
      <g>
       <use xlink:href="#m33051110d5" x="224.181818" y="256.32" style="stroke: #000000; stroke-width: 0.8"/>
      </g>
     </g>
     <g id="text_3">
      <!-- Side Effects -->
      <g transform="translate(137.877226 357.429283) rotate(-45) scale(0.2 -0.2)">
       <defs>
        <path id="DejaVuSans-64" d="M 2906 2969 
L 2906 4863 
L 3481 4863 
L 3481 0 
L 2906 0 
L 2906 525 
Q 2725 213 2448 61 
Q 2172 -91 1784 -91 
Q 1150 -91 751 415 
Q 353 922 353 1747 
Q 353 2572 751 3078 
Q 1150 3584 1784 3584 
Q 2172 3584 2448 3432 
Q 2725 3281 2906 2969 
z
M 947 1747 
Q 947 1113 1208 752 
Q 1469 391 1925 391 
Q 2381 391 2643 752 
Q 2906 1113 2906 1747 
Q 2906 2381 2643 2742 
Q 2381 3103 1925 3103 
Q 1469 3103 1208 2742 
Q 947 2381 947 1747 
z
" transform="scale(0.015625)"/>
        <path id="DejaVuSans-45" d="M 628 4666 
L 3578 4666 
L 3578 4134 
L 1259 4134 
L 1259 2753 
L 3481 2753 
L 3481 2222 
L 1259 2222 
L 1259 531 
L 3634 531 
L 3634 0 
L 628 0 
L 628 4666 
z
" transform="scale(0.015625)"/>
        <path id="DejaVuSans-66" d="M 2375 4863 
L 2375 4384 
L 1825 4384 
Q 1516 4384 1395 4259 
Q 1275 4134 1275 3809 
L 1275 3500 
L 2222 3500 
L 2222 3053 
L 1275 3053 
L 1275 0 
L 697 0 
L 697 3053 
L 147 3053 
L 147 3500 
L 697 3500 
L 697 3744 
Q 697 4328 969 4595 
Q 1241 4863 1831 4863 
L 2375 4863 
z
" transform="scale(0.015625)"/>
        <path id="DejaVuSans-63" d="M 3122 3366 
L 3122 2828 
Q 2878 2963 2633 3030 
Q 2388 3097 2138 3097 
Q 1578 3097 1268 2742 
Q 959 2388 959 1747 
Q 959 1106 1268 751 
Q 1578 397 2138 397 
Q 2388 397 2633 464 
Q 2878 531 3122 666 
L 3122 134 
Q 2881 22 2623 -34 
Q 2366 -91 2075 -91 
Q 1284 -91 818 406 
Q 353 903 353 1747 
Q 353 2603 823 3093 
Q 1294 3584 2113 3584 
Q 2378 3584 2631 3529 
Q 2884 3475 3122 3366 
z
" transform="scale(0.015625)"/>
        <path id="DejaVuSans-74" d="M 1172 4494 
L 1172 3500 
L 2356 3500 
L 2356 3053 
L 1172 3053 
L 1172 1153 
Q 1172 725 1289 603 
Q 1406 481 1766 481 
L 2356 481 
L 2356 0 
L 1766 0 
Q 1100 0 847 248 
Q 594 497 594 1153 
L 594 3053 
L 172 3053 
L 172 3500 
L 594 3500 
L 594 4494 
L 1172 4494 
z
" transform="scale(0.015625)"/>
        <path id="DejaVuSans-73" d="M 2834 3397 
L 2834 2853 
Q 2591 2978 2328 3040 
Q 2066 3103 1784 3103 
Q 1356 3103 1142 2972 
Q 928 2841 928 2578 
Q 928 2378 1081 2264 
Q 1234 2150 1697 2047 
L 1894 2003 
Q 2506 1872 2764 1633 
Q 3022 1394 3022 966 
Q 3022 478 2636 193 
Q 2250 -91 1575 -91 
Q 1294 -91 989 -36 
Q 684 19 347 128 
L 347 722 
Q 666 556 975 473 
Q 1284 391 1588 391 
Q 1994 391 2212 530 
Q 2431 669 2431 922 
Q 2431 1156 2273 1281 
Q 2116 1406 1581 1522 
L 1381 1569 
Q 847 1681 609 1914 
Q 372 2147 372 2553 
Q 372 3047 722 3315 
Q 1072 3584 1716 3584 
Q 2034 3584 2315 3537 
Q 2597 3491 2834 3397 
z
" transform="scale(0.015625)"/>
       </defs>
       <use xlink:href="#DejaVuSans-53"/>
       <use xlink:href="#DejaVuSans-69" x="63.476562"/>
       <use xlink:href="#DejaVuSans-64" x="91.259766"/>
       <use xlink:href="#DejaVuSans-65" x="154.736328"/>
       <use xlink:href="#DejaVuSans-20" x="216.259766"/>
       <use xlink:href="#DejaVuSans-45" x="248.046875"/>
       <use xlink:href="#DejaVuSans-66" x="311.230469"/>
       <use xlink:href="#DejaVuSans-66" x="346.435547"/>
       <use xlink:href="#DejaVuSans-65" x="381.640625"/>
       <use xlink:href="#DejaVuSans-63" x="443.164062"/>
       <use xlink:href="#DejaVuSans-74" x="498.144531"/>
       <use xlink:href="#DejaVuSans-73" x="537.353516"/>
      </g>
     </g>
    </g>
   </g>
   <g id="matplotlib.axis_2">
    <g id="ytick_1">
     <g id="line2d_4">
      <defs>
       <path id="m4bb518ad30" d="M 0 0 
L -3.5 0 
" style="stroke: #000000; stroke-width: 0.8"/>
      </defs>
      <g>
       <use xlink:href="#m4bb518ad30" x="72" y="256.32" style="stroke: #000000; stroke-width: 0.8"/>
      </g>
     </g>
     <g id="text_4">
      <!-- −4 -->
      <g transform="translate(50.257812 260.119219) scale(0.1 -0.1)">
       <defs>
        <path id="DejaVuSans-2212" d="M 678 2272 
L 4684 2272 
L 4684 1741 
L 678 1741 
L 678 2272 
z
" transform="scale(0.015625)"/>
        <path id="DejaVuSans-34" d="M 2419 4116 
L 825 1625 
L 2419 1625 
L 2419 4116 
z
M 2253 4666 
L 3047 4666 
L 3047 1625 
L 3713 1625 
L 3713 1100 
L 3047 1100 
L 3047 0 
L 2419 0 
L 2419 1100 
L 313 1100 
L 313 1709 
L 2253 4666 
z
" transform="scale(0.015625)"/>
       </defs>
       <use xlink:href="#DejaVuSans-2212"/>
       <use xlink:href="#DejaVuSans-34" x="83.789062"/>
      </g>
     </g>
    </g>
    <g id="ytick_2">
     <g id="line2d_5">
      <g>
       <use xlink:href="#m4bb518ad30" x="72" y="228.6" style="stroke: #000000; stroke-width: 0.8"/>
      </g>
     </g>
     <g id="text_5">
      <!-- −3 -->
      <g transform="translate(50.257812 232.399219) scale(0.1 -0.1)">
       <defs>
        <path id="DejaVuSans-33" d="M 2597 2516 
Q 3050 2419 3304 2112 
Q 3559 1806 3559 1356 
Q 3559 666 3084 287 
Q 2609 -91 1734 -91 
Q 1441 -91 1130 -33 
Q 819 25 488 141 
L 488 750 
Q 750 597 1062 519 
Q 1375 441 1716 441 
Q 2309 441 2620 675 
Q 2931 909 2931 1356 
Q 2931 1769 2642 2001 
Q 2353 2234 1838 2234 
L 1294 2234 
L 1294 2753 
L 1863 2753 
Q 2328 2753 2575 2939 
Q 2822 3125 2822 3475 
Q 2822 3834 2567 4026 
Q 2313 4219 1838 4219 
Q 1578 4219 1281 4162 
Q 984 4106 628 3988 
L 628 4550 
Q 988 4650 1302 4700 
Q 1616 4750 1894 4750 
Q 2613 4750 3031 4423 
Q 3450 4097 3450 3541 
Q 3450 3153 3228 2886 
Q 3006 2619 2597 2516 
z
" transform="scale(0.015625)"/>
       </defs>
       <use xlink:href="#DejaVuSans-2212"/>
       <use xlink:href="#DejaVuSans-33" x="83.789062"/>
      </g>
     </g>
    </g>
    <g id="ytick_3">
     <g id="line2d_6">
      <g>
       <use xlink:href="#m4bb518ad30" x="72" y="200.88" style="stroke: #000000; stroke-width: 0.8"/>
      </g>
     </g>
     <g id="text_6">
      <!-- −2 -->
      <g transform="translate(50.257812 204.679219) scale(0.1 -0.1)">
       <defs>
        <path id="DejaVuSans-32" d="M 1228 531 
L 3431 531 
L 3431 0 
L 469 0 
L 469 531 
Q 828 903 1448 1529 
Q 2069 2156 2228 2338 
Q 2531 2678 2651 2914 
Q 2772 3150 2772 3378 
Q 2772 3750 2511 3984 
Q 2250 4219 1831 4219 
Q 1534 4219 1204 4116 
Q 875 4013 500 3803 
L 500 4441 
Q 881 4594 1212 4672 
Q 1544 4750 1819 4750 
Q 2544 4750 2975 4387 
Q 3406 4025 3406 3419 
Q 3406 3131 3298 2873 
Q 3191 2616 2906 2266 
Q 2828 2175 2409 1742 
Q 1991 1309 1228 531 
z
" transform="scale(0.015625)"/>
       </defs>
       <use xlink:href="#DejaVuSans-2212"/>
       <use xlink:href="#DejaVuSans-32" x="83.789062"/>
      </g>
     </g>
    </g>
    <g id="ytick_4">
     <g id="line2d_7">
      <g>
       <use xlink:href="#m4bb518ad30" x="72" y="173.16" style="stroke: #000000; stroke-width: 0.8"/>
      </g>
     </g>
     <g id="text_7">
      <!-- −1 -->
      <g transform="translate(50.257812 176.959219) scale(0.1 -0.1)">
       <defs>
        <path id="DejaVuSans-31" d="M 794 531 
L 1825 531 
L 1825 4091 
L 703 3866 
L 703 4441 
L 1819 4666 
L 2450 4666 
L 2450 531 
L 3481 531 
L 3481 0 
L 794 0 
L 794 531 
z
" transform="scale(0.015625)"/>
       </defs>
       <use xlink:href="#DejaVuSans-2212"/>
       <use xlink:href="#DejaVuSans-31" x="83.789062"/>
      </g>
     </g>
    </g>
    <g id="ytick_5">
     <g id="line2d_8">
      <g>
       <use xlink:href="#m4bb518ad30" x="72" y="145.44" style="stroke: #000000; stroke-width: 0.8"/>
      </g>
     </g>
     <g id="text_8">
      <!-- 0 -->
      <g transform="translate(58.6375 149.239219) scale(0.1 -0.1)">
       <defs>
        <path id="DejaVuSans-30" d="M 2034 4250 
Q 1547 4250 1301 3770 
Q 1056 3291 1056 2328 
Q 1056 1369 1301 889 
Q 1547 409 2034 409 
Q 2525 409 2770 889 
Q 3016 1369 3016 2328 
Q 3016 3291 2770 3770 
Q 2525 4250 2034 4250 
z
M 2034 4750 
Q 2819 4750 3233 4129 
Q 3647 3509 3647 2328 
Q 3647 1150 3233 529 
Q 2819 -91 2034 -91 
Q 1250 -91 836 529 
Q 422 1150 422 2328 
Q 422 3509 836 4129 
Q 1250 4750 2034 4750 
z
" transform="scale(0.015625)"/>
       </defs>
       <use xlink:href="#DejaVuSans-30"/>
      </g>
     </g>
    </g>
    <g id="ytick_6">
     <g id="line2d_9">
      <g>
       <use xlink:href="#m4bb518ad30" x="72" y="117.72" style="stroke: #000000; stroke-width: 0.8"/>
      </g>
     </g>
     <g id="text_9">
      <!-- 1 -->
      <g transform="translate(58.6375 121.519219) scale(0.1 -0.1)">
       <use xlink:href="#DejaVuSans-31"/>
      </g>
     </g>
    </g>
    <g id="ytick_7">
     <g id="line2d_10">
      <g>
       <use xlink:href="#m4bb518ad30" x="72" y="90" style="stroke: #000000; stroke-width: 0.8"/>
      </g>
     </g>
     <g id="text_10">
      <!-- 2 -->
      <g transform="translate(58.6375 93.799219) scale(0.1 -0.1)">
       <use xlink:href="#DejaVuSans-32"/>
      </g>
     </g>
    </g>
    <g id="ytick_8">
     <g id="line2d_11">
      <g>
       <use xlink:href="#m4bb518ad30" x="72" y="62.28" style="stroke: #000000; stroke-width: 0.8"/>
      </g>
     </g>
     <g id="text_11">
      <!-- 3 -->
      <g transform="translate(58.6375 66.079219) scale(0.1 -0.1)">
       <use xlink:href="#DejaVuSans-33"/>
      </g>
     </g>
    </g>
    <g id="ytick_9">
     <g id="line2d_12">
      <g>
       <use xlink:href="#m4bb518ad30" x="72" y="34.56" style="stroke: #000000; stroke-width: 0.8"/>
      </g>
     </g>
     <g id="text_12">
      <!-- 4 -->
      <g transform="translate(58.6375 38.359219) scale(0.1 -0.1)">
       <use xlink:href="#DejaVuSans-34"/>
      </g>
     </g>
    </g>
    <g id="text_13">
     <!-- $\Delta$s' g (p.s.d.) -->
     <g transform="translate(42.057812 208.24) rotate(-90) scale(0.2 -0.2)">
      <defs>
       <path id="DejaVuSans-394" d="M 2188 4044 
L 906 525 
L 3472 525 
L 2188 4044 
z
M 50 0 
L 1831 4666 
L 2547 4666 
L 4325 0 
L 50 0 
z
" transform="scale(0.015625)"/>
       <path id="DejaVuSans-27" d="M 1147 4666 
L 1147 2931 
L 616 2931 
L 616 4666 
L 1147 4666 
z
" transform="scale(0.015625)"/>
       <path id="DejaVuSans-67" d="M 2906 1791 
Q 2906 2416 2648 2759 
Q 2391 3103 1925 3103 
Q 1463 3103 1205 2759 
Q 947 2416 947 1791 
Q 947 1169 1205 825 
Q 1463 481 1925 481 
Q 2391 481 2648 825 
Q 2906 1169 2906 1791 
z
M 3481 434 
Q 3481 -459 3084 -895 
Q 2688 -1331 1869 -1331 
Q 1566 -1331 1297 -1286 
Q 1028 -1241 775 -1147 
L 775 -588 
Q 1028 -725 1275 -790 
Q 1522 -856 1778 -856 
Q 2344 -856 2625 -561 
Q 2906 -266 2906 331 
L 2906 616 
Q 2728 306 2450 153 
Q 2172 0 1784 0 
Q 1141 0 747 490 
Q 353 981 353 1791 
Q 353 2603 747 3093 
Q 1141 3584 1784 3584 
Q 2172 3584 2450 3431 
Q 2728 3278 2906 2969 
L 2906 3500 
L 3481 3500 
L 3481 434 
z
" transform="scale(0.015625)"/>
       <path id="DejaVuSans-28" d="M 1984 4856 
Q 1566 4138 1362 3434 
Q 1159 2731 1159 2009 
Q 1159 1288 1364 580 
Q 1569 -128 1984 -844 
L 1484 -844 
Q 1016 -109 783 600 
Q 550 1309 550 2009 
Q 550 2706 781 3412 
Q 1013 4119 1484 4856 
L 1984 4856 
z
" transform="scale(0.015625)"/>
       <path id="DejaVuSans-70" d="M 1159 525 
L 1159 -1331 
L 581 -1331 
L 581 3500 
L 1159 3500 
L 1159 2969 
Q 1341 3281 1617 3432 
Q 1894 3584 2278 3584 
Q 2916 3584 3314 3078 
Q 3713 2572 3713 1747 
Q 3713 922 3314 415 
Q 2916 -91 2278 -91 
Q 1894 -91 1617 61 
Q 1341 213 1159 525 
z
M 3116 1747 
Q 3116 2381 2855 2742 
Q 2594 3103 2138 3103 
Q 1681 3103 1420 2742 
Q 1159 2381 1159 1747 
Q 1159 1113 1420 752 
Q 1681 391 2138 391 
Q 2594 391 2855 752 
Q 3116 1113 3116 1747 
z
" transform="scale(0.015625)"/>
       <path id="DejaVuSans-2e" d="M 684 794 
L 1344 794 
L 1344 0 
L 684 0 
L 684 794 
z
" transform="scale(0.015625)"/>
       <path id="DejaVuSans-29" d="M 513 4856 
L 1013 4856 
Q 1481 4119 1714 3412 
Q 1947 2706 1947 2009 
Q 1947 1309 1714 600 
Q 1481 -109 1013 -844 
L 513 -844 
Q 928 -128 1133 580 
Q 1338 1288 1338 2009 
Q 1338 2731 1133 3434 
Q 928 4138 513 4856 
z
" transform="scale(0.015625)"/>
      </defs>
      <use xlink:href="#DejaVuSans-394" transform="translate(0 0.015625)"/>
      <use xlink:href="#DejaVuSans-73" transform="translate(68.408203 0.015625)"/>
      <use xlink:href="#DejaVuSans-27" transform="translate(120.507812 0.015625)"/>
      <use xlink:href="#DejaVuSans-20" transform="translate(147.998047 0.015625)"/>
      <use xlink:href="#DejaVuSans-67" transform="translate(179.785156 0.015625)"/>
      <use xlink:href="#DejaVuSans-20" transform="translate(243.261719 0.015625)"/>
      <use xlink:href="#DejaVuSans-28" transform="translate(275.048828 0.015625)"/>
      <use xlink:href="#DejaVuSans-70" transform="translate(314.0625 0.015625)"/>
      <use xlink:href="#DejaVuSans-2e" transform="translate(377.539062 0.015625)"/>
      <use xlink:href="#DejaVuSans-73" transform="translate(409.326172 0.015625)"/>
      <use xlink:href="#DejaVuSans-2e" transform="translate(461.425781 0.015625)"/>
      <use xlink:href="#DejaVuSans-64" transform="translate(493.212891 0.015625)"/>
      <use xlink:href="#DejaVuSans-2e" transform="translate(556.689453 0.015625)"/>
      <use xlink:href="#DejaVuSans-29" transform="translate(588.476562 0.015625)"/>
     </g>
    </g>
   </g>
   <g id="line2d_13">
    <path d="M 72 145.44 
L 274.909091 145.44 
" clip-path="url(#pe654a03598)" style="fill: none; stroke: #000000; stroke-linecap: square"/>
   </g>
   <g id="line2d_14">
    <defs>
     <path id="m37379905c6" d="M 0 5 
C 1.326016 5 2.597899 4.473168 3.535534 3.535534 
C 4.473168 2.597899 5 1.326016 5 0 
C 5 -1.326016 4.473168 -2.597899 3.535534 -3.535534 
C 2.597899 -4.473168 1.326016 -5 0 -5 
C -1.326016 -5 -2.597899 -4.473168 -3.535534 -3.535534 
C -4.473168 -2.597899 -5 -1.326016 -5 0 
C -5 1.326016 -4.473168 2.597899 -3.535534 3.535534 
C -2.597899 4.473168 -1.326016 5 0 5 
z
" style="stroke: #000000"/>
    </defs>
    <g clip-path="url(#pe654a03598)">
     <use xlink:href="#m37379905c6" x="122.727273" y="203.837211" style="stroke: #000000"/>
    </g>
   </g>
   <g id="line2d_15">
    <path d="M 122.727273 178.588148 
L 122.727273 228.027035 
" clip-path="url(#pe654a03598)" style="fill: none; stroke: #000000; stroke-width: 2.5; stroke-linecap: square"/>
   </g>
   <g id="line2d_16">
    <g clip-path="url(#pe654a03598)">
     <use xlink:href="#m37379905c6" x="173.454545" y="98.742075" style="stroke: #000000"/>
    </g>
   </g>
   <g id="line2d_17">
    <path d="M 173.454545 74.216519 
L 173.454545 124.322397 
" clip-path="url(#pe654a03598)" style="fill: none; stroke: #000000; stroke-width: 2.5; stroke-linecap: square"/>
   </g>
   <g id="line2d_18">
    <g clip-path="url(#pe654a03598)">
     <use xlink:href="#m37379905c6" x="224.181818" y="165.785927" style="stroke: #000000"/>
    </g>
   </g>
   <g id="line2d_19">
    <path d="M 224.181818 140.051204 
L 224.181818 190.948343 
" clip-path="url(#pe654a03598)" style="fill: none; stroke: #000000; stroke-width: 2.5; stroke-linecap: square"/>
   </g>
   <g id="patch_3">
    <path d="M 72 256.32 
L 72 34.56 
" style="fill: none; stroke: #000000; stroke-width: 0.8; stroke-linejoin: miter; stroke-linecap: square"/>
   </g>
   <g id="patch_4">
    <path d="M 274.909091 256.32 
L 274.909091 34.56 
" style="fill: none"/>
   </g>
   <g id="patch_5">
    <path d="M 72 256.32 
L 274.909091 256.32 
" style="fill: none"/>
   </g>
   <g id="patch_6">
    <path d="M 72 34.56 
L 274.909091 34.56 
" style="fill: none"/>
   </g>
   <g id="text_14">
    <!-- Drug 1 -->
    <g transform="translate(139.417045 28.56) scale(0.2 -0.2)">
     <defs>
      <path id="DejaVuSans-44" d="M 1259 4147 
L 1259 519 
L 2022 519 
Q 2988 519 3436 956 
Q 3884 1394 3884 2338 
Q 3884 3275 3436 3711 
Q 2988 4147 2022 4147 
L 1259 4147 
z
M 628 4666 
L 1925 4666 
Q 3281 4666 3915 4102 
Q 4550 3538 4550 2338 
Q 4550 1131 3912 565 
Q 3275 0 1925 0 
L 628 0 
L 628 4666 
z
" transform="scale(0.015625)"/>
     </defs>
     <use xlink:href="#DejaVuSans-44"/>
     <use xlink:href="#DejaVuSans-72" x="77.001953"/>
     <use xlink:href="#DejaVuSans-75" x="118.115234"/>
     <use xlink:href="#DejaVuSans-67" x="181.494141"/>
     <use xlink:href="#DejaVuSans-20" x="244.970703"/>
     <use xlink:href="#DejaVuSans-31" x="276.757812"/>
    </g>
   </g>
  </g>
  <g id="axes_2">
   <g id="patch_7">
    <path d="M 315.490909 256.32 
L 518.4 256.32 
L 518.4 34.56 
L 315.490909 34.56 
z
" style="fill: #ffffff"/>
   </g>
   <g id="PolyCollection_4">
    <defs>
     <path id="mac733d0cdf" d="M 366.242554 -73.835215 
L 366.218494 -73.835215 
L 366.218494 -74.559026 
L 366.218494 -75.282837 
L 366.218494 -76.006648 
L 366.218494 -76.73046 
L 366.218494 -77.454271 
L 366.218494 -78.178082 
L 366.218494 -78.901893 
L 366.218494 -79.625704 
L 366.218494 -80.349515 
L 366.218494 -81.073326 
L 366.218494 -81.797137 
L 366.218494 -82.520949 
L 366.218494 -83.24476 
L 366.218494 -83.968571 
L 366.218494 -84.692382 
L 366.218494 -85.416193 
L 366.218494 -86.140004 
L 366.218494 -86.863815 
L 366.218494 -87.587627 
L 366.218494 -88.311438 
L 366.218494 -89.035249 
L 366.218494 -89.75906 
L 366.218494 -90.482871 
L 366.218494 -91.206682 
L 366.218494 -91.930493 
L 366.218494 -92.654305 
L 366.218494 -93.378116 
L 366.218494 -94.101927 
L 366.218494 -94.825738 
L 366.218494 -95.549549 
L 366.218494 -96.27336 
L 366.218494 -96.997171 
L 366.218494 -97.720983 
L 366.218494 -98.444794 
L 366.218494 -99.168605 
L 366.218494 -99.892416 
L 366.218494 -100.616227 
L 366.218494 -101.340038 
L 366.218494 -102.063849 
L 366.218494 -102.787661 
L 366.218494 -103.511472 
L 366.218494 -104.235283 
L 366.218494 -104.959094 
L 366.218494 -105.682905 
L 366.218494 -106.406716 
L 366.218494 -107.130527 
L 366.218494 -107.854339 
L 366.218494 -108.57815 
L 366.218494 -109.301961 
L 366.218494 -110.025772 
L 366.218494 -110.749583 
L 366.218494 -111.473394 
L 366.218494 -112.197205 
L 366.218494 -112.921017 
L 366.218494 -113.644828 
L 366.218494 -114.368639 
L 366.218494 -115.09245 
L 366.218494 -115.816261 
L 366.218494 -116.540072 
L 366.218494 -117.263883 
L 366.218494 -117.987695 
L 366.218494 -118.711506 
L 366.218494 -119.435317 
L 366.218494 -120.159128 
L 366.218494 -120.882939 
L 366.218494 -121.60675 
L 366.218494 -122.330561 
L 366.218494 -123.054373 
L 366.218494 -123.778184 
L 366.218494 -124.501995 
L 366.218494 -125.225806 
L 366.218494 -125.949617 
L 366.218494 -126.673428 
L 366.218494 -127.397239 
L 366.218494 -128.121051 
L 366.218494 -128.844862 
L 366.218494 -129.568673 
L 366.218494 -130.292484 
L 366.218494 -131.016295 
L 366.218494 -131.740106 
L 366.218494 -132.463917 
L 366.218494 -133.187729 
L 366.218494 -133.91154 
L 366.218494 -134.635351 
L 366.218494 -135.359162 
L 366.218494 -136.082973 
L 366.218494 -136.806784 
L 366.218494 -137.530595 
L 366.218494 -138.254407 
L 366.218494 -138.978218 
L 366.218494 -139.702029 
L 366.218494 -140.42584 
L 366.218494 -141.149651 
L 366.218494 -141.873462 
L 366.218494 -142.597273 
L 366.218494 -143.321085 
L 366.218494 -144.044896 
L 366.218494 -144.768707 
L 366.218494 -145.492518 
L 366.232808 -145.492518 
L 366.232808 -145.492518 
L 366.233127 -144.768707 
L 366.232921 -144.044896 
L 366.233607 -143.321085 
L 366.235866 -142.597273 
L 366.239216 -141.873462 
L 366.242665 -141.149651 
L 366.245708 -140.42584 
L 366.248766 -139.702029 
L 366.252782 -138.978218 
L 366.258372 -138.254407 
L 366.265401 -137.530595 
L 366.27363 -136.806784 
L 366.283917 -136.082973 
L 366.298388 -135.359162 
L 366.319088 -134.635351 
L 366.347033 -133.91154 
L 366.383506 -133.187729 
L 366.432025 -132.463917 
L 366.497525 -131.740106 
L 366.58252 -131.016295 
L 366.684456 -130.292484 
L 366.797494 -129.568673 
L 366.917004 -128.844862 
L 367.042682 -128.121051 
L 367.17838 -127.397239 
L 367.329338 -126.673428 
L 367.498857 -125.949617 
L 367.687654 -125.225806 
L 367.897547 -124.501995 
L 368.135509 -123.778184 
L 368.411677 -123.054373 
L 368.731998 -122.330561 
L 369.093772 -121.60675 
L 369.487937 -120.882939 
L 369.902247 -120.159128 
L 370.321561 -119.435317 
L 370.731271 -118.711506 
L 371.127623 -117.987695 
L 371.526173 -117.263883 
L 371.958577 -116.540072 
L 372.459283 -115.816261 
L 373.048977 -115.09245 
L 373.721077 -114.368639 
L 374.440775 -113.644828 
L 375.161475 -112.921017 
L 375.844247 -112.197205 
L 376.461067 -111.473394 
L 376.988119 -110.749583 
L 377.412491 -110.025772 
L 377.750673 -109.301961 
L 378.046809 -108.57815 
L 378.336866 -107.854339 
L 378.61177 -107.130527 
L 378.819264 -106.406716 
L 378.9 -105.682905 
L 378.821409 -104.959094 
L 378.588919 -104.235283 
L 378.240374 -103.511472 
L 377.830895 -102.787661 
L 377.410241 -102.063849 
L 377.003083 -101.340038 
L 376.607581 -100.616227 
L 376.212167 -99.892416 
L 375.810889 -99.168605 
L 375.401049 -98.444794 
L 374.970649 -97.720983 
L 374.496196 -96.997171 
L 373.957993 -96.27336 
L 373.359837 -95.549549 
L 372.734837 -94.825738 
L 372.129481 -94.101927 
L 371.575652 -93.378116 
L 371.073097 -92.654305 
L 370.59794 -91.930493 
L 370.128697 -91.206682 
L 369.665726 -90.482871 
L 369.229568 -89.75906 
L 368.844121 -89.035249 
L 368.520268 -88.311438 
L 368.250836 -87.587627 
L 368.017555 -86.863815 
L 367.80282 -86.140004 
L 367.597607 -85.416193 
L 367.401706 -84.692382 
L 367.218836 -83.968571 
L 367.052151 -83.24476 
L 366.903445 -82.520949 
L 366.774639 -81.797137 
L 366.668034 -81.073326 
L 366.584291 -80.349515 
L 366.520468 -79.625704 
L 366.470303 -78.901893 
L 366.426646 -78.178082 
L 366.384498 -77.454271 
L 366.343057 -76.73046 
L 366.305379 -76.006648 
L 366.275498 -75.282837 
L 366.255104 -74.559026 
L 366.242554 -73.835215 
z
"/>
    </defs>
    <g clip-path="url(#p426a70c430)">
     <use xlink:href="#mac733d0cdf" x="0" y="288" style="fill: #4682b4; fill-opacity: 0.4"/>
    </g>
   </g>
   <g id="PolyCollection_5">
    <defs>
     <path id="m8bc495dbcc" d="M 416.969476 -119.007091 
L 416.945959 -119.007091 
L 416.945959 -119.735368 
L 416.945959 -120.463645 
L 416.945959 -121.191922 
L 416.945959 -121.920199 
L 416.945959 -122.648475 
L 416.945959 -123.376752 
L 416.945959 -124.105029 
L 416.945959 -124.833306 
L 416.945959 -125.561583 
L 416.945959 -126.289859 
L 416.945959 -127.018136 
L 416.945959 -127.746413 
L 416.945959 -128.47469 
L 416.945959 -129.202967 
L 416.945959 -129.931243 
L 416.945959 -130.65952 
L 416.945959 -131.387797 
L 416.945959 -132.116074 
L 416.945959 -132.844351 
L 416.945959 -133.572627 
L 416.945959 -134.300904 
L 416.945959 -135.029181 
L 416.945959 -135.757458 
L 416.945959 -136.485735 
L 416.945959 -137.214011 
L 416.945959 -137.942288 
L 416.945959 -138.670565 
L 416.945959 -139.398842 
L 416.945959 -140.127119 
L 416.945959 -140.855396 
L 416.945959 -141.583672 
L 416.945959 -142.311949 
L 416.945959 -143.040226 
L 416.945959 -143.768503 
L 416.945959 -144.49678 
L 416.945959 -145.225056 
L 416.945959 -145.953333 
L 416.945959 -146.68161 
L 416.945959 -147.409887 
L 416.945959 -148.138164 
L 416.945959 -148.86644 
L 416.945959 -149.594717 
L 416.945959 -150.322994 
L 416.945959 -151.051271 
L 416.945959 -151.779548 
L 416.945959 -152.507824 
L 416.945959 -153.236101 
L 416.945959 -153.964378 
L 416.945959 -154.692655 
L 416.945959 -155.420932 
L 416.945959 -156.149208 
L 416.945959 -156.877485 
L 416.945959 -157.605762 
L 416.945959 -158.334039 
L 416.945959 -159.062316 
L 416.945959 -159.790592 
L 416.945959 -160.518869 
L 416.945959 -161.247146 
L 416.945959 -161.975423 
L 416.945959 -162.7037 
L 416.945959 -163.431976 
L 416.945959 -164.160253 
L 416.945959 -164.88853 
L 416.945959 -165.616807 
L 416.945959 -166.345084 
L 416.945959 -167.07336 
L 416.945959 -167.801637 
L 416.945959 -168.529914 
L 416.945959 -169.258191 
L 416.945959 -169.986468 
L 416.945959 -170.714745 
L 416.945959 -171.443021 
L 416.945959 -172.171298 
L 416.945959 -172.899575 
L 416.945959 -173.627852 
L 416.945959 -174.356129 
L 416.945959 -175.084405 
L 416.945959 -175.812682 
L 416.945959 -176.540959 
L 416.945959 -177.269236 
L 416.945959 -177.997513 
L 416.945959 -178.725789 
L 416.945959 -179.454066 
L 416.945959 -180.182343 
L 416.945959 -180.91062 
L 416.945959 -181.638897 
L 416.945959 -182.367173 
L 416.945959 -183.09545 
L 416.945959 -183.823727 
L 416.945959 -184.552004 
L 416.945959 -185.280281 
L 416.945959 -186.008557 
L 416.945959 -186.736834 
L 416.945959 -187.465111 
L 416.945959 -188.193388 
L 416.945959 -188.921665 
L 416.945959 -189.649941 
L 416.945959 -190.378218 
L 416.945959 -191.106495 
L 416.999743 -191.106495 
L 416.999743 -191.106495 
L 417.012503 -190.378218 
L 417.024612 -189.649941 
L 417.038641 -188.921665 
L 417.057426 -188.193388 
L 417.082422 -187.465111 
L 417.113251 -186.736834 
L 417.148407 -186.008557 
L 417.186426 -185.280281 
L 417.226621 -184.552004 
L 417.268961 -183.823727 
L 417.313846 -183.09545 
L 417.363089 -182.367173 
L 417.422017 -181.638897 
L 417.500573 -180.91062 
L 417.61134 -180.182343 
L 417.764638 -179.454066 
L 417.963432 -178.725789 
L 418.2016 -177.997513 
L 418.467176 -177.269236 
L 418.74851 -176.540959 
L 419.039416 -175.812682 
L 419.340907 -175.084405 
L 419.659533 -174.356129 
L 420.003446 -173.627852 
L 420.377599 -172.899575 
L 420.78039 -172.171298 
L 421.2047 -171.443021 
L 421.644558 -170.714745 
L 422.104303 -169.986468 
L 422.603001 -169.258191 
L 423.167015 -168.529914 
L 423.810749 -167.801637 
L 424.517279 -167.07336 
L 425.236147 -166.345084 
L 425.905109 -165.616807 
L 426.482697 -164.88853 
L 426.968646 -164.160253 
L 427.398656 -163.431976 
L 427.818396 -162.7037 
L 428.253234 -161.975423 
L 428.689842 -161.247146 
L 429.079448 -160.518869 
L 429.364065 -159.790592 
L 429.514146 -159.062316 
L 429.552472 -158.334039 
L 429.54202 -157.605762 
L 429.543658 -156.877485 
L 429.578188 -156.149208 
L 429.621564 -155.420932 
L 429.627273 -154.692655 
L 429.549677 -153.964378 
L 429.356467 -153.236101 
L 429.036938 -152.507824 
L 428.607545 -151.779548 
L 428.104071 -151.051271 
L 427.559071 -150.322994 
L 426.983752 -149.594717 
L 426.37311 -148.86644 
L 425.728396 -148.138164 
L 425.071871 -147.409887 
L 424.437409 -146.68161 
L 423.845971 -145.953333 
L 423.290124 -145.225056 
L 422.742283 -144.49678 
L 422.178484 -143.768503 
L 421.596993 -143.040226 
L 421.01937 -142.311949 
L 420.478158 -141.583672 
L 420.002243 -140.855396 
L 419.60619 -140.127119 
L 419.284799 -139.398842 
L 419.014811 -138.670565 
L 418.766125 -137.942288 
L 418.518582 -137.214011 
L 418.272571 -136.485735 
L 418.044418 -135.757458 
L 417.851188 -135.029181 
L 417.698591 -134.300904 
L 417.579727 -133.572627 
L 417.481301 -132.844351 
L 417.39101 -132.116074 
L 417.303246 -131.387797 
L 417.221244 -130.65952 
L 417.153532 -129.931243 
L 417.10623 -129.202967 
L 417.077616 -128.47469 
L 417.059878 -127.746413 
L 417.045685 -127.018136 
L 417.032671 -126.289859 
L 417.022188 -125.561583 
L 417.015196 -124.833306 
L 417.010242 -124.105029 
L 417.004909 -123.376752 
L 416.998155 -122.648475 
L 416.990831 -121.920199 
L 416.984315 -121.191922 
L 416.979072 -120.463645 
L 416.974443 -119.735368 
L 416.969476 -119.007091 
z
"/>
    </defs>
    <g clip-path="url(#p426a70c430)">
     <use xlink:href="#m8bc495dbcc" x="0" y="288" style="fill: #ff4500; fill-opacity: 0.4"/>
    </g>
   </g>
   <g id="PolyCollection_6">
    <defs>
     <path id="m34f5a1dbc8" d="M 467.714141 -76.854295 
L 467.673225 -76.854295 
L 467.673225 -77.817147 
L 467.673225 -78.779998 
L 467.673225 -79.74285 
L 467.673225 -80.705702 
L 467.673225 -81.668554 
L 467.673225 -82.631406 
L 467.673225 -83.594258 
L 467.673225 -84.55711 
L 467.673225 -85.519962 
L 467.673225 -86.482813 
L 467.673225 -87.445665 
L 467.673225 -88.408517 
L 467.673225 -89.371369 
L 467.673225 -90.334221 
L 467.673225 -91.297073 
L 467.673225 -92.259925 
L 467.673225 -93.222777 
L 467.673225 -94.185629 
L 467.673225 -95.14848 
L 467.673225 -96.111332 
L 467.673225 -97.074184 
L 467.673225 -98.037036 
L 467.673225 -98.999888 
L 467.673225 -99.96274 
L 467.673225 -100.925592 
L 467.673225 -101.888444 
L 467.673225 -102.851296 
L 467.673225 -103.814147 
L 467.673225 -104.776999 
L 467.673225 -105.739851 
L 467.673225 -106.702703 
L 467.673225 -107.665555 
L 467.673225 -108.628407 
L 467.673225 -109.591259 
L 467.673225 -110.554111 
L 467.673225 -111.516962 
L 467.673225 -112.479814 
L 467.673225 -113.442666 
L 467.673225 -114.405518 
L 467.673225 -115.36837 
L 467.673225 -116.331222 
L 467.673225 -117.294074 
L 467.673225 -118.256926 
L 467.673225 -119.219778 
L 467.673225 -120.182629 
L 467.673225 -121.145481 
L 467.673225 -122.108333 
L 467.673225 -123.071185 
L 467.673225 -124.034037 
L 467.673225 -124.996889 
L 467.673225 -125.959741 
L 467.673225 -126.922593 
L 467.673225 -127.885444 
L 467.673225 -128.848296 
L 467.673225 -129.811148 
L 467.673225 -130.774 
L 467.673225 -131.736852 
L 467.673225 -132.699704 
L 467.673225 -133.662556 
L 467.673225 -134.625408 
L 467.673225 -135.58826 
L 467.673225 -136.551111 
L 467.673225 -137.513963 
L 467.673225 -138.476815 
L 467.673225 -139.439667 
L 467.673225 -140.402519 
L 467.673225 -141.365371 
L 467.673225 -142.328223 
L 467.673225 -143.291075 
L 467.673225 -144.253927 
L 467.673225 -145.216778 
L 467.673225 -146.17963 
L 467.673225 -147.142482 
L 467.673225 -148.105334 
L 467.673225 -149.068186 
L 467.673225 -150.031038 
L 467.673225 -150.99389 
L 467.673225 -151.956742 
L 467.673225 -152.919593 
L 467.673225 -153.882445 
L 467.673225 -154.845297 
L 467.673225 -155.808149 
L 467.673225 -156.771001 
L 467.673225 -157.733853 
L 467.673225 -158.696705 
L 467.673225 -159.659557 
L 467.673225 -160.622409 
L 467.673225 -161.58526 
L 467.673225 -162.548112 
L 467.673225 -163.510964 
L 467.673225 -164.473816 
L 467.673225 -165.436668 
L 467.673225 -166.39952 
L 467.673225 -167.362372 
L 467.673225 -168.325224 
L 467.673225 -169.288075 
L 467.673225 -170.250927 
L 467.673225 -171.213779 
L 467.673225 -172.176631 
L 467.690961 -172.176631 
L 467.690961 -172.176631 
L 467.693807 -171.213779 
L 467.697604 -170.250927 
L 467.704393 -169.288075 
L 467.716096 -168.325224 
L 467.733838 -167.362372 
L 467.757602 -166.39952 
L 467.786206 -165.436668 
L 467.817497 -164.473816 
L 467.848433 -163.510964 
L 467.875089 -162.548112 
L 467.893625 -161.58526 
L 467.90318 -160.622409 
L 467.909224 -159.659557 
L 467.923694 -158.696705 
L 467.960015 -157.733853 
L 468.025995 -156.771001 
L 468.120377 -155.808149 
L 468.23603 -154.845297 
L 468.367206 -153.882445 
L 468.515117 -152.919593 
L 468.687665 -151.956742 
L 468.893463 -150.99389 
L 469.13401 -150.031038 
L 469.399651 -149.068186 
L 469.673915 -148.105334 
L 469.945716 -147.142482 
L 470.221675 -146.17963 
L 470.527752 -145.216778 
L 470.895776 -144.253927 
L 471.342738 -143.291075 
L 471.857967 -142.328223 
L 472.408313 -141.365371 
L 472.957974 -140.402519 
L 473.488512 -139.439667 
L 474.004559 -138.476815 
L 474.523129 -137.513963 
L 475.059273 -136.551111 
L 475.621459 -135.58826 
L 476.214194 -134.625408 
L 476.83492 -133.662556 
L 477.463965 -132.699704 
L 478.062726 -131.736852 
L 478.589228 -130.774 
L 479.018273 -129.811148 
L 479.346932 -128.848296 
L 479.584444 -127.885444 
L 479.74334 -126.922593 
L 479.842487 -125.959741 
L 479.912846 -124.996889 
L 479.990531 -124.034037 
L 480.096745 -123.071185 
L 480.220932 -122.108333 
L 480.322952 -121.145481 
L 480.354545 -120.182629 
L 480.285522 -119.219778 
L 480.116489 -118.256926 
L 479.869573 -117.294074 
L 479.566275 -116.331222 
L 479.213177 -115.36837 
L 478.8072 -114.405518 
L 478.350518 -113.442666 
L 477.856462 -112.479814 
L 477.340924 -111.516962 
L 476.810256 -110.554111 
L 476.258562 -109.591259 
L 475.677027 -108.628407 
L 475.067208 -107.665555 
L 474.446963 -106.702703 
L 473.8442 -105.739851 
L 473.283795 -104.776999 
L 472.776607 -103.814147 
L 472.315255 -102.851296 
L 471.877589 -101.888444 
L 471.438149 -100.925592 
L 470.984033 -99.96274 
L 470.525099 -98.999888 
L 470.089399 -98.037036 
L 469.706566 -97.074184 
L 469.39242 -96.111332 
L 469.145181 -95.14848 
L 468.95157 -94.185629 
L 468.794387 -93.222777 
L 468.657147 -92.259925 
L 468.527231 -91.297073 
L 468.398849 -90.334221 
L 468.273734 -89.371369 
L 468.158077 -88.408517 
L 468.057992 -87.445665 
L 467.976917 -86.482813 
L 467.915417 -85.519962 
L 467.871596 -84.55711 
L 467.841428 -83.594258 
L 467.819676 -82.631406 
L 467.801532 -81.668554 
L 467.783928 -80.705702 
L 467.765796 -79.74285 
L 467.747482 -78.779998 
L 467.729942 -77.817147 
L 467.714141 -76.854295 
z
"/>
    </defs>
    <g clip-path="url(#p426a70c430)">
     <use xlink:href="#m34f5a1dbc8" x="0" y="288" style="fill: #2e8b57; fill-opacity: 0.4"/>
    </g>
   </g>
   <g id="matplotlib.axis_3">
    <g id="xtick_4">
     <g id="line2d_20">
      <g>
       <use xlink:href="#m33051110d5" x="366.218182" y="256.32" style="stroke: #000000; stroke-width: 0.8"/>
      </g>
     </g>
     <g id="text_15">
      <!-- Tumor Size -->
      <g transform="translate(286.047741 351.295132) rotate(-45) scale(0.2 -0.2)">
       <use xlink:href="#DejaVuSans-54"/>
       <use xlink:href="#DejaVuSans-75" x="45.958984"/>
       <use xlink:href="#DejaVuSans-6d" x="109.337891"/>
       <use xlink:href="#DejaVuSans-6f" x="206.75"/>
       <use xlink:href="#DejaVuSans-72" x="267.931641"/>
       <use xlink:href="#DejaVuSans-20" x="309.044922"/>
       <use xlink:href="#DejaVuSans-53" x="340.832031"/>
       <use xlink:href="#DejaVuSans-69" x="404.308594"/>
       <use xlink:href="#DejaVuSans-7a" x="432.091797"/>
       <use xlink:href="#DejaVuSans-65" x="484.582031"/>
      </g>
     </g>
    </g>
    <g id="xtick_5">
     <g id="line2d_21">
      <g>
       <use xlink:href="#m33051110d5" x="416.945455" y="256.32" style="stroke: #000000; stroke-width: 0.8"/>
      </g>
     </g>
     <g id="text_16">
      <!-- Survival -->
      <g transform="translate(356.985009 331.085136) rotate(-45) scale(0.2 -0.2)">
       <use xlink:href="#DejaVuSans-53"/>
       <use xlink:href="#DejaVuSans-75" x="63.476562"/>
       <use xlink:href="#DejaVuSans-72" x="126.855469"/>
       <use xlink:href="#DejaVuSans-76" x="167.96875"/>
       <use xlink:href="#DejaVuSans-69" x="227.148438"/>
       <use xlink:href="#DejaVuSans-76" x="254.931641"/>
       <use xlink:href="#DejaVuSans-61" x="314.111328"/>
       <use xlink:href="#DejaVuSans-6c" x="375.390625"/>
      </g>
     </g>
    </g>
    <g id="xtick_6">
     <g id="line2d_22">
      <g>
       <use xlink:href="#m33051110d5" x="467.672727" y="256.32" style="stroke: #000000; stroke-width: 0.8"/>
      </g>
     </g>
     <g id="text_17">
      <!-- Side Effects -->
      <g transform="translate(381.368135 357.429283) rotate(-45) scale(0.2 -0.2)">
       <use xlink:href="#DejaVuSans-53"/>
       <use xlink:href="#DejaVuSans-69" x="63.476562"/>
       <use xlink:href="#DejaVuSans-64" x="91.259766"/>
       <use xlink:href="#DejaVuSans-65" x="154.736328"/>
       <use xlink:href="#DejaVuSans-20" x="216.259766"/>
       <use xlink:href="#DejaVuSans-45" x="248.046875"/>
       <use xlink:href="#DejaVuSans-66" x="311.230469"/>
       <use xlink:href="#DejaVuSans-66" x="346.435547"/>
       <use xlink:href="#DejaVuSans-65" x="381.640625"/>
       <use xlink:href="#DejaVuSans-63" x="443.164062"/>
       <use xlink:href="#DejaVuSans-74" x="498.144531"/>
       <use xlink:href="#DejaVuSans-73" x="537.353516"/>
      </g>
     </g>
    </g>
   </g>
   <g id="matplotlib.axis_4">
    <g id="ytick_10">
     <g id="line2d_23">
      <g>
       <use xlink:href="#m4bb518ad30" x="315.490909" y="256.32" style="stroke: #000000; stroke-width: 0.8"/>
      </g>
     </g>
     <g id="text_18">
      <!-- −4 -->
      <g transform="translate(293.748722 260.119219) scale(0.1 -0.1)">
       <use xlink:href="#DejaVuSans-2212"/>
       <use xlink:href="#DejaVuSans-34" x="83.789062"/>
      </g>
     </g>
    </g>
    <g id="ytick_11">
     <g id="line2d_24">
      <g>
       <use xlink:href="#m4bb518ad30" x="315.490909" y="228.6" style="stroke: #000000; stroke-width: 0.8"/>
      </g>
     </g>
     <g id="text_19">
      <!-- −3 -->
      <g transform="translate(293.748722 232.399219) scale(0.1 -0.1)">
       <use xlink:href="#DejaVuSans-2212"/>
       <use xlink:href="#DejaVuSans-33" x="83.789062"/>
      </g>
     </g>
    </g>
    <g id="ytick_12">
     <g id="line2d_25">
      <g>
       <use xlink:href="#m4bb518ad30" x="315.490909" y="200.88" style="stroke: #000000; stroke-width: 0.8"/>
      </g>
     </g>
     <g id="text_20">
      <!-- −2 -->
      <g transform="translate(293.748722 204.679219) scale(0.1 -0.1)">
       <use xlink:href="#DejaVuSans-2212"/>
       <use xlink:href="#DejaVuSans-32" x="83.789062"/>
      </g>
     </g>
    </g>
    <g id="ytick_13">
     <g id="line2d_26">
      <g>
       <use xlink:href="#m4bb518ad30" x="315.490909" y="173.16" style="stroke: #000000; stroke-width: 0.8"/>
      </g>
     </g>
     <g id="text_21">
      <!-- −1 -->
      <g transform="translate(293.748722 176.959219) scale(0.1 -0.1)">
       <use xlink:href="#DejaVuSans-2212"/>
       <use xlink:href="#DejaVuSans-31" x="83.789062"/>
      </g>
     </g>
    </g>
    <g id="ytick_14">
     <g id="line2d_27">
      <g>
       <use xlink:href="#m4bb518ad30" x="315.490909" y="145.44" style="stroke: #000000; stroke-width: 0.8"/>
      </g>
     </g>
     <g id="text_22">
      <!-- 0 -->
      <g transform="translate(302.128409 149.239219) scale(0.1 -0.1)">
       <use xlink:href="#DejaVuSans-30"/>
      </g>
     </g>
    </g>
    <g id="ytick_15">
     <g id="line2d_28">
      <g>
       <use xlink:href="#m4bb518ad30" x="315.490909" y="117.72" style="stroke: #000000; stroke-width: 0.8"/>
      </g>
     </g>
     <g id="text_23">
      <!-- 1 -->
      <g transform="translate(302.128409 121.519219) scale(0.1 -0.1)">
       <use xlink:href="#DejaVuSans-31"/>
      </g>
     </g>
    </g>
    <g id="ytick_16">
     <g id="line2d_29">
      <g>
       <use xlink:href="#m4bb518ad30" x="315.490909" y="90" style="stroke: #000000; stroke-width: 0.8"/>
      </g>
     </g>
     <g id="text_24">
      <!-- 2 -->
      <g transform="translate(302.128409 93.799219) scale(0.1 -0.1)">
       <use xlink:href="#DejaVuSans-32"/>
      </g>
     </g>
    </g>
    <g id="ytick_17">
     <g id="line2d_30">
      <g>
       <use xlink:href="#m4bb518ad30" x="315.490909" y="62.28" style="stroke: #000000; stroke-width: 0.8"/>
      </g>
     </g>
     <g id="text_25">
      <!-- 3 -->
      <g transform="translate(302.128409 66.079219) scale(0.1 -0.1)">
       <use xlink:href="#DejaVuSans-33"/>
      </g>
     </g>
    </g>
    <g id="ytick_18">
     <g id="line2d_31">
      <g>
       <use xlink:href="#m4bb518ad30" x="315.490909" y="34.56" style="stroke: #000000; stroke-width: 0.8"/>
      </g>
     </g>
     <g id="text_26">
      <!-- 4 -->
      <g transform="translate(302.128409 38.359219) scale(0.1 -0.1)">
       <use xlink:href="#DejaVuSans-34"/>
      </g>
     </g>
    </g>
   </g>
   <g id="line2d_32">
    <path d="M 315.490909 145.44 
L 518.4 145.44 
" clip-path="url(#p426a70c430)" style="fill: none; stroke: #000000; stroke-linecap: square"/>
   </g>
   <g id="line2d_33">
    <g clip-path="url(#p426a70c430)">
     <use xlink:href="#m37379905c6" x="366.218182" y="182.357682" style="stroke: #000000"/>
    </g>
   </g>
   <g id="line2d_34">
    <path d="M 366.218182 163.649857 
L 366.218182 200.779215 
" clip-path="url(#p426a70c430)" style="fill: none; stroke: #000000; stroke-width: 2.5; stroke-linecap: square"/>
   </g>
   <g id="line2d_35">
    <g clip-path="url(#p426a70c430)">
     <use xlink:href="#m37379905c6" x="416.945455" y="130.968168" style="stroke: #000000"/>
    </g>
   </g>
   <g id="line2d_36">
    <path d="M 416.945455 112.002602 
L 416.945455 149.444282 
" clip-path="url(#p426a70c430)" style="fill: none; stroke: #000000; stroke-width: 2.5; stroke-linecap: square"/>
   </g>
   <g id="line2d_37">
    <g clip-path="url(#p426a70c430)">
     <use xlink:href="#m37379905c6" x="467.672727" y="165.785927" style="stroke: #000000"/>
    </g>
   </g>
   <g id="line2d_38">
    <path d="M 467.672727 140.051204 
L 467.672727 190.948343 
" clip-path="url(#p426a70c430)" style="fill: none; stroke: #000000; stroke-width: 2.5; stroke-linecap: square"/>
   </g>
   <g id="patch_8">
    <path d="M 315.490909 256.32 
L 315.490909 34.56 
" style="fill: none; stroke: #000000; stroke-width: 0.8; stroke-linejoin: miter; stroke-linecap: square"/>
   </g>
   <g id="patch_9">
    <path d="M 518.4 256.32 
L 518.4 34.56 
" style="fill: none"/>
   </g>
   <g id="patch_10">
    <path d="M 315.490909 256.32 
L 518.4 256.32 
" style="fill: none"/>
   </g>
   <g id="patch_11">
    <path d="M 315.490909 34.56 
L 518.4 34.56 
" style="fill: none"/>
   </g>
   <g id="text_27">
    <!-- Drug 2 -->
    <g transform="translate(382.907955 28.56) scale(0.2 -0.2)">
     <use xlink:href="#DejaVuSans-44"/>
     <use xlink:href="#DejaVuSans-72" x="77.001953"/>
     <use xlink:href="#DejaVuSans-75" x="118.115234"/>
     <use xlink:href="#DejaVuSans-67" x="181.494141"/>
     <use xlink:href="#DejaVuSans-20" x="244.970703"/>
     <use xlink:href="#DejaVuSans-32" x="276.757812"/>
    </g>
   </g>
  </g>
 </g>
 <defs>
  <clipPath id="pe654a03598">
   <rect x="72" y="34.56" width="202.909091" height="221.76"/>
  </clipPath>
  <clipPath id="p426a70c430">
   <rect x="315.490909" y="34.56" width="202.909091" height="221.76"/>
  </clipPath>
 </defs>
</svg>
